<?xml version="1.0" encoding="utf-8"?>
<!-- Generator: Adobe Illustrator 26.5.0, SVG Export Plug-In . SVG Version: 6.00 Build 0)  -->
<svg version="1.1" id="Layer_1" xmlns="http://www.w3.org/2000/svg" xmlns:xlink="http://www.w3.org/1999/xlink" x="0px" y="0px"
	 viewBox="0 0 24 24" style="enable-background:new 0 0 24 24;" xml:space="preserve">
<style type="text/css">
	.st0{fill:none;}
	.st1{fill:#FFFFFF;}
	.st2{fill:#FFFFFF;stroke:#FFFFFF;stroke-width:0.5;stroke-miterlimit:10;}
</style>
<path class="st0" d="M0,0h24v24H0V0z"/>
<path class="st1" d="M6.6,10.8H3.2c-0.6,0-1.1,0.5-1.1,1.1l0,6.9C2,19.5,2.5,20,3.2,20h9.2c0.6,0,1.1-0.5,1.1-1.1v-5.8
	c0-0.6-0.5-1.2-1.1-1.2H7.8L6.6,10.8z"/>
<g>
	<path class="st2" d="M16.3,12.9c-0.6-0.2-1-0.4-1.3-0.8c-0.3-0.4-0.4-0.8-0.4-1.3V9.8c0-0.3-0.1-0.6-0.2-0.8
		c-0.2-0.2-0.4-0.3-0.7-0.3V8c0.3,0,0.6-0.1,0.7-0.3c0.2-0.2,0.2-0.5,0.2-0.8V6c0-0.5,0.1-1,0.4-1.3c0.3-0.4,0.7-0.6,1.3-0.8
		l0.2,0.5c-0.3,0.1-0.6,0.3-0.7,0.6c-0.1,0.3-0.2,0.6-0.2,1v0.9c0,0.3-0.1,0.6-0.2,0.9C15.2,8,15,8.2,14.7,8.4
		C15,8.5,15.2,8.7,15.3,9s0.2,0.5,0.2,0.8v0.9c0,0.4,0.1,0.7,0.2,1c0.1,0.3,0.4,0.5,0.7,0.6L16.3,12.9z"/>
	<path class="st2" d="M19,12.3c0.3-0.1,0.6-0.3,0.7-0.6c0.1-0.3,0.2-0.6,0.2-1V9.8c0-0.3,0.1-0.6,0.2-0.9c0.1-0.2,0.4-0.4,0.6-0.6
		c-0.3-0.1-0.5-0.3-0.6-0.6c-0.1-0.2-0.2-0.5-0.2-0.9V6c0-0.4-0.1-0.7-0.2-1c-0.1-0.3-0.4-0.5-0.7-0.6l0.2-0.5
		c0.6,0.2,1,0.4,1.3,0.8C20.7,5,20.8,5.5,20.8,6v0.9c0,0.3,0.1,0.6,0.2,0.8C21.2,7.9,21.5,8,21.8,8v0.7c-0.3,0-0.6,0.1-0.7,0.3
		c-0.2,0.2-0.2,0.5-0.2,0.8v0.9c0,0.5-0.1,1-0.4,1.3c-0.3,0.4-0.7,0.6-1.3,0.8L19,12.3z"/>
</g>
</svg>
