<?xml version="1.0" encoding="utf-8"?>
<!-- Generator: Adobe Illustrator 23.0.6, SVG Export Plug-In . SVG Version: 6.00 Build 0)  -->
<svg version="1.1" id="Layer_1" xmlns="http://www.w3.org/2000/svg" xmlns:xlink="http://www.w3.org/1999/xlink" x="0px" y="0px"
	 viewBox="0 0 50 250" style="enable-background:new 0 0 50 250;" xml:space="preserve">
<style type="text/css">
	.st0{opacity:0.3;}
	.st1{fill:none;stroke:#FFFFFF;stroke-miterlimit:10;}
	.st2{fill:#FFFFFF;}
</style>
<path class="st0" d="M25,0C11.2,0,0,11.2,0,25v225h50V25C50,11.2,38.8,0,25,0z M25,39.4c-7.9,0-14.4-6.4-14.4-14.4
	S17.1,10.6,25,10.6S39.4,17.1,39.4,25S32.9,39.4,25,39.4z"/>
<polyline class="st1" points="27.9,46.5 49,46.5 49,66.8 38.9,66.8 "/>
<polyline class="st1" points="38.4,66.8 49,66.8 49,87 38.4,87 "/>
<polyline class="st1" points="38.4,87 49,87 49,107.3 38.4,107.3 "/>
<polyline class="st1" points="38.4,107.3 49,107.3 49,127.5 38.4,127.5 "/>
<polyline class="st1" points="38.4,127.5 49,127.5 49,147.8 38.4,147.8 "/>
<polyline class="st1" points="32.4,147.8 49,147.8 49,168 38.4,168 "/>
<polyline class="st1" points="38.4,168 49,168 49,188.3 38.4,188.3 "/>
<polyline class="st1" points="38.4,188.3 49,188.3 49,208.5 38.4,208.5 "/>
<polyline class="st1" points="38.4,208.5 49,208.5 49,228.8 38.4,228.8 "/>
<polyline class="st1" points="38.9,228.8 49,228.8 49,249 27.9,249 "/>
<path class="st1" d="M137.4,262.3"/>
<g>
	<path class="st2" d="M19.1,152.5c3.9,0,6.1,1.5,6.1,4c0,2.3-2.1,3.8-6,3.8c-3.9,0-6-1.7-6-4C13.2,153.9,15.4,152.5,19.1,152.5z
		 M19.2,158.8c3,0,4.7-0.9,4.7-2.4c0-1.6-1.9-2.4-4.8-2.4c-2.9,0-4.7,0.7-4.7,2.4C14.4,157.8,16.1,158.8,19.2,158.8z"/>
	<path class="st2" d="M24.1,150.9c-0.7,0-1.1-0.4-1.1-1.1c0-0.6,0.5-1.1,1.1-1.1c0.6,0,1.1,0.4,1.1,1.1
		C25.2,150.5,24.7,150.9,24.1,150.9z"/>
	<path class="st2" d="M14.9,143.9L14.9,143.9l1.1,2.1l-1.2,0.3l-1.4-2.5v-1.3H25v1.5H14.9z"/>
	<path class="st2" d="M18.7,137.7c-0.9,0-1.6,0-2.3,0.1v-1.4l1.4-0.1v-0.1c-0.8-0.5-1.6-1.3-1.6-2.7c0-1.2,0.7-2.1,1.7-2.4v0
		c-0.5-0.3-0.9-0.6-1.1-1c-0.4-0.5-0.6-1.1-0.6-1.9c0-1.1,0.8-2.8,3.8-2.8H25v1.5h-4.9c-1.7,0-2.7,0.6-2.7,1.9
		c0,0.9,0.7,1.6,1.4,1.9c0.2,0.1,0.5,0.1,0.8,0.1H25v1.5h-5.2c-1.4,0-2.4,0.6-2.4,1.8c0,1,0.8,1.7,1.6,1.9c0.2,0.1,0.5,0.1,0.8,0.1
		H25v1.5H18.7z"/>
	<path class="st2" d="M18.7,122.8c-0.9,0-1.6,0-2.3,0.1v-1.4l1.4-0.1v-0.1c-0.8-0.5-1.6-1.3-1.6-2.7c0-1.2,0.7-2.1,1.7-2.4v0
		c-0.5-0.3-0.9-0.6-1.1-1c-0.4-0.5-0.6-1.1-0.6-1.9c0-1.1,0.8-2.8,3.8-2.8H25v1.5h-4.9c-1.7,0-2.7,0.6-2.7,1.9
		c0,0.9,0.7,1.6,1.4,1.9c0.2,0.1,0.5,0.1,0.8,0.1H25v1.5h-5.2c-1.4,0-2.4,0.6-2.4,1.8c0,1,0.8,1.7,1.6,1.9c0.2,0.1,0.5,0.1,0.8,0.1
		H25v1.5H18.7z"/>
</g>
</svg>
