<?xml version="1.0" encoding="utf-8"?>
<!-- Generator: Adobe Illustrator 23.0.6, SVG Export Plug-In . SVG Version: 6.00 Build 0)  -->
<svg version="1.1" id="Layer_1" xmlns="http://www.w3.org/2000/svg" xmlns:xlink="http://www.w3.org/1999/xlink" x="0px" y="0px"
	 viewBox="0 0 252.1 50" style="enable-background:new 0 0 252.1 50;" xml:space="preserve">
<style type="text/css">
	.st0{opacity:0.3;enable-background:new    ;}
	.st1{fill:none;stroke:#FFFFFF;stroke-miterlimit:10;}
	.st2{fill:#FFFFFF;}
</style>
<path class="st0" d="M250,25c0-13.8-11.2-25-25-25H0v50h225C238.8,50,250,38.8,250,25z M210.6,25c0-7.9,6.4-14.4,14.4-14.4
	s14.4,6.5,14.4,14.4s-6.5,14.4-14.4,14.4S210.6,32.9,210.6,25z"/>
<polyline class="st1" points="203.5,27.9 203.5,49 183.2,49 183.2,38.9 "/>
<polyline class="st1" points="183.2,38.4 183.2,49 163,49 163,38.4 "/>
<polyline class="st1" points="163,38.4 163,49 142.7,49 142.7,38.4 "/>
<polyline class="st1" points="142.7,38.4 142.7,49 122.5,49 122.5,38.4 "/>
<polyline class="st1" points="122.5,38.4 122.5,49 102.2,49 102.2,38.4 "/>
<polyline class="st1" points="102.2,32.4 102.2,49 82,49 82,38.4 "/>
<polyline class="st1" points="82,38.4 82,49 61.7,49 61.7,38.4 "/>
<polyline class="st1" points="61.7,38.4 61.7,49 41.5,49 41.5,38.4 "/>
<polyline class="st1" points="41.5,38.4 41.5,49 21.2,49 21.2,38.4 "/>
<polyline class="st1" points="21.2,38.9 21.2,49 1,49 1,27.9 "/>
<path class="st1" d="M237.4,162.3"/>
<g>
	<path class="st2" d="M97.5,19.1c0,3.9-1.5,6.1-4,6.1c-2.3,0-3.8-2.1-3.8-6s1.7-6,4-6C96.1,13.2,97.5,15.4,97.5,19.1z M91.2,19.2
		c0,3,0.9,4.7,2.4,4.7c1.6,0,2.4-1.9,2.4-4.8s-0.7-4.7-2.4-4.7C92.2,14.4,91.2,16.1,91.2,19.2z"/>
	<path class="st2" d="M99.1,24.1c0-0.7,0.4-1.1,1.1-1.1c0.6,0,1.1,0.5,1.1,1.1s-0.4,1.1-1.1,1.1S99.1,24.7,99.1,24.1z"/>
	<path class="st2" d="M106.1,14.9L106.1,14.9L104,16l-0.3-1.2l2.5-1.4h1.3V25H106V14.9H106.1z"/>
	<path class="st2" d="M112.3,18.7c0-0.9,0-1.6-0.1-2.3h1.4l0.1,1.4h0.1c0.5-0.8,1.3-1.6,2.7-1.6c1.2,0,2.1,0.7,2.4,1.7l0,0
		c0.3-0.5,0.6-0.9,1-1.1c0.5-0.4,1.1-0.6,1.9-0.6c1.1,0,2.8,0.8,2.8,3.8v5h-1.5v-4.9c0-1.7-0.6-2.7-1.9-2.7c-0.9,0-1.6,0.7-1.9,1.4
		c-0.1,0.2-0.1,0.5-0.1,0.8V25h-1.5v-5.2c0-1.4-0.6-2.4-1.8-2.4c-1,0-1.7,0.8-1.9,1.6c-0.1,0.2-0.1,0.5-0.1,0.8V25h-1.5L112.3,18.7
		L112.3,18.7z"/>
	<path class="st2" d="M127.2,18.7c0-0.9,0-1.6-0.1-2.3h1.4l0.1,1.4h0.1c0.5-0.8,1.3-1.6,2.7-1.6c1.2,0,2.1,0.7,2.4,1.7l0,0
		c0.3-0.5,0.6-0.9,1-1.1c0.5-0.4,1.1-0.6,1.9-0.6c1.1,0,2.8,0.8,2.8,3.8v5H138v-4.9c0-1.7-0.6-2.7-1.9-2.7c-0.9,0-1.6,0.7-1.9,1.4
		c-0.1,0.2-0.1,0.5-0.1,0.8V25h-1.5v-5.2c0-1.4-0.6-2.4-1.8-2.4c-1,0-1.7,0.8-1.9,1.6c-0.1,0.2-0.1,0.5-0.1,0.8V25h-1.5L127.2,18.7
		L127.2,18.7z"/>
</g>
</svg>
