<?xml version="1.0" encoding="utf-8"?>
<!-- Generator: Adobe Illustrator 23.0.6, SVG Export Plug-In . SVG Version: 6.00 Build 0)  -->
<svg version="1.1" id="Layer_1" xmlns="http://www.w3.org/2000/svg" xmlns:xlink="http://www.w3.org/1999/xlink" x="0px" y="0px"
	 viewBox="0 0 50 50" style="enable-background:new 0 0 50 50;" xml:space="preserve">
<style type="text/css">
	.st0{fill:#FFFFFF;}
</style>
<g>
	<path class="st0" d="M22.9,18.7c0.4,0,0.9,0,1.3,0c3.3,0.2,6,1.7,8.1,4.3c0.2,0.2,0.3,0.3,0.6,0.4c3.4,0.7,6.4-0.3,9.1-2.5
		c1.4-1.2,2.6-2.6,3.6-4.2c0.1-0.2,0.1-0.4,0-0.6c-2.3-3.1-5.1-5.5-8.5-7.3c-2.7-1.4-5.6-2.3-8.6-2.6c-2.2-0.2-4.4-0.2-6.7,0.2
		c-0.1,0-0.2,0-0.4,0.1C24.3,10.2,24.8,14.3,22.9,18.7z M16.9,20.9c1.2-0.9,2.5-1.5,3.9-1.9c0.1,0,0.3-0.1,0.4-0.3
		c1.3-2.2,1.8-4.6,1.2-7.2c-0.4-1.8-1.3-3.3-2.5-4.7c-0.1-0.1-0.2-0.1-0.3-0.1C15,8,11,10.2,8,13.9c-1.2,1.5-2.2,3.1-2.9,5
		c4.6-1.5,7.7,0.4,9.7,4.5C15.3,22.4,16,21.6,16.9,20.9z M13.6,29.3c-0.3-1.3-0.1-2.5,0.2-3.8c0-0.1,0.1-0.3,0-0.4
		c-0.5-1.7-1.3-3.2-2.7-4.3c-1.3-1-2.8-1.3-4.3-1c-0.7,0.1-1.4,0.4-2.1,0.7c-0.1,0.1-0.3,0.2-0.3,0.4c-0.8,2.7-0.9,5.5-0.5,8.3
		C4.2,31.7,5,33.9,6.3,36c0,0.1,0,0.2,0.1,0.3c0,0,0.1,0,0.1-0.1c0.2-0.4,0.3-0.9,0.5-1.3c0.8-1.7,2.3-2.6,4.1-3c1-0.2,2-0.3,3-0.3
		c0.1,0,0.2,0,0.2,0C14,30.9,13.7,30.1,13.6,29.3z M17.3,39.8c0-1.5,0.7-2.8,1.5-4c-0.3-0.1-0.5-0.2-0.8-0.3
		c-1.1-0.5-1.9-1.2-2.6-2.1c-0.1-0.1-0.2-0.2-0.3-0.2c-1.4-0.2-2.9-0.2-4.3,0.3c-1.9,0.6-2.9,2-3,3.9c0,0.5,0.1,0.9,0.4,1.2
		c2,2.2,4.4,3.7,7.2,4.5c1.1,0.3,2.2,0.4,3.3,0.6c0.1,0,0.2,0,0.3,0C17.9,42.6,17.2,41.4,17.3,39.8z M21.1,36.1
		c-0.6,0-0.9,0.2-1.2,0.7c-0.5,0.8-1,1.6-1.1,2.6c-0.2,1.4,0.4,2.5,1.5,3.5c0.9,0.8,0.9,0.8,2.1,0.6c3.2-0.6,5.9-1.9,8.2-4.3
		c0.3-0.4,0.6-0.8,0.9-1.2c-1.3,0.3-2.4,0-3.4-0.7c-1-0.7-1.6-1.8-2.1-2.9C24.4,35.6,22.9,36.2,21.1,36.1z M24.4,26.4
		c-1.1-0.6-2.2-0.7-3.3-0.2c-1.1,0.5-2,1.3-2.5,2.5c-0.4,0.9-0.3,1.8,0,2.7c0.5,1.3,1.4,2.3,2.4,3.3c0.1,0.1,0.2,0.1,0.3,0.1
		c1.9-0.2,3.5-0.9,4.4-2.6c0.2-0.4,0.3-0.8,0.5-1.2C26.6,29.1,25.8,27.2,24.4,26.4z M27.4,27.9c0.1,0.5,0.2,0.9,0.3,1.3
		c0.2,1.3-0.1,2.5-0.7,3.6c-0.1,0.2-0.1,0.4,0,0.6c0.4,0.9,0.8,1.7,1.5,2.4c0.9,0.9,1.9,1.1,3,0.6c0.9-0.3,1.3-0.9,1.6-1.9
		c0.8-3.2,0.6-6.2-0.9-9.1c0,0,0-0.1-0.1-0.1C31,27.1,29.4,27.8,27.4,27.9z M23.9,24.6c0.8,0.3,1.6,0.6,2.1,1.2
		c0.6,0.8,1.4,0.6,2.2,0.5c1.4-0.2,2.5-1.1,2.7-2.4c0-0.1,0-0.3-0.1-0.4c-1.1-1.4-2.5-2.4-4.2-2.9c-0.8-0.3-1.6-0.4-2.4-0.6
		c0,0-0.1,0.1-0.1,0.1C24.9,21.7,24.9,23.2,23.9,24.6z M21.4,24.6c0.7-0.2,1.1-0.5,1.5-1.1c0.4-0.6,0.5-1.3,0.3-2
		c-0.1-0.4-0.3-0.8-0.5-1.2c0-0.1-0.2-0.2-0.3-0.2c-2.1,0.3-3.9,1.1-5.4,2.6c0,0-0.1,0.1-0.1,0.1c0,0,0,0,0,0.1
		c1.4,0.3,2.2,1.3,2.7,2.5C20.1,25.1,20.7,24.8,21.4,24.6z M16,29.1c0.3,0,0.6,0.1,0.9,0.2c0.3-0.7,0.6-1.3,0.9-1.9
		c0.1-0.2,0.3-0.4,0.5-0.6c0.1-0.2,0.2-0.3,0.1-0.5c-0.2-0.5-0.4-1-0.8-1.4c-0.4-0.4-0.9-0.6-1.5-0.4c-0.1,0-0.2,0.1-0.2,0.2
		c-0.7,1.4-1,2.9-0.7,4.5c0,0,0,0.1,0,0.1C15.3,29.1,15.7,29.1,16,29.1z M18.6,34.2c-0.1-0.1-0.1-0.2-0.1-0.3
		C17.8,33,17.3,32.1,17,31c0-0.1-0.1-0.2-0.2-0.2c-0.5-0.2-0.9-0.4-1.5-0.2C16,32.2,17,33.4,18.6,34.2z"/>
	<path class="st0" d="M21.4,6.4c2.9,3.8,3.5,7.9,1.5,12.3c0.4,0,0.9,0,1.3,0c3.3,0.2,6,1.7,8.1,4.3c0.2,0.2,0.3,0.3,0.6,0.4
		c3.4,0.7,6.4-0.3,9.1-2.5c1.4-1.2,2.6-2.6,3.6-4.2c0.1-0.2,0.1-0.4,0-0.6c-2.3-3.1-5.1-5.5-8.5-7.3c-2.7-1.4-5.6-2.3-8.6-2.6
		c-2.2-0.2-4.4-0.2-6.7,0.2C21.6,6.3,21.5,6.4,21.4,6.4z"/>
	<path class="st0" d="M14.7,23.4c0.6-1,1.3-1.9,2.3-2.5c1.2-0.9,2.5-1.5,3.9-1.9c0.1,0,0.3-0.1,0.4-0.3c1.3-2.2,1.8-4.6,1.2-7.2
		c-0.4-1.8-1.3-3.3-2.5-4.7c-0.1-0.1-0.2-0.1-0.3-0.1C15,8,11,10.2,8,13.9c-1.2,1.5-2.2,3.1-2.9,5C9.7,17.4,12.7,19.3,14.7,23.4z"/>
	<path class="st0" d="M14.2,31.7c-0.2-0.8-0.4-1.6-0.6-2.3c-0.3-1.3-0.1-2.5,0.2-3.8c0-0.1,0.1-0.3,0-0.4c-0.5-1.7-1.3-3.2-2.7-4.3
		c-1.3-1-2.8-1.3-4.3-1c-0.7,0.1-1.4,0.4-2.1,0.7c-0.1,0.1-0.3,0.2-0.3,0.4c-0.8,2.7-0.9,5.5-0.5,8.3C4.2,31.7,5,33.9,6.3,36
		c0,0.1,0,0.2,0.1,0.3c0,0,0.1,0,0.1-0.1c0.2-0.4,0.3-0.9,0.5-1.3c0.8-1.7,2.3-2.6,4.1-3c1-0.2,2-0.3,3-0.3
		C14,31.7,14.1,31.7,14.2,31.7z"/>
	<path class="st0" d="M19,43.7c-1.1-1.1-1.7-2.4-1.7-3.9c0-1.5,0.7-2.8,1.5-4c-0.3-0.1-0.5-0.2-0.8-0.3c-1.1-0.5-1.9-1.2-2.6-2.1
		c-0.1-0.1-0.2-0.2-0.3-0.2c-1.4-0.2-2.9-0.2-4.3,0.3c-1.9,0.6-2.9,2-3,3.9c0,0.5,0.1,0.9,0.4,1.2c2,2.2,4.4,3.7,7.2,4.5
		c1.1,0.3,2.2,0.4,3.3,0.6C18.7,43.7,18.8,43.7,19,43.7z"/>
	<path class="st0" d="M25.8,34.4c-1.4,1.2-3,1.8-4.8,1.8c-0.6,0-0.9,0.2-1.2,0.7c-0.5,0.8-1,1.6-1.1,2.6c-0.2,1.4,0.4,2.5,1.5,3.5
		c0.9,0.8,0.9,0.8,2.1,0.6c3.2-0.6,5.9-1.9,8.2-4.3c0.3-0.4,0.6-0.8,0.9-1.2c-1.3,0.3-2.4,0-3.4-0.7C27,36.5,26.4,35.5,25.8,34.4z"
		/>
	<path class="st0" d="M26.3,30.8c0.3-1.8-0.4-3.6-1.8-4.4c-1.1-0.6-2.2-0.7-3.3-0.2c-1.1,0.5-2,1.3-2.5,2.5c-0.4,0.9-0.3,1.8,0,2.7
		c0.5,1.3,1.4,2.3,2.4,3.3c0.1,0.1,0.2,0.1,0.3,0.1c1.9-0.2,3.5-0.9,4.4-2.6C26,31.7,26.1,31.3,26.3,30.8z"/>
	<path class="st0" d="M32,25.3c-1,1.8-2.6,2.5-4.6,2.6c0.1,0.5,0.2,0.9,0.3,1.3c0.2,1.3-0.1,2.5-0.7,3.6c-0.1,0.2-0.1,0.4,0,0.6
		c0.4,0.9,0.8,1.7,1.5,2.4c0.9,0.9,1.9,1.1,3,0.6c0.9-0.3,1.3-0.9,1.6-1.9c0.8-3.2,0.6-6.2-0.9-9.1C32.1,25.4,32.1,25.4,32,25.3z"/>
	<path class="st0" d="M24.2,20.2c0.7,1.5,0.7,3-0.3,4.4c0.8,0.3,1.6,0.6,2.1,1.2c0.6,0.8,1.4,0.6,2.2,0.5c1.4-0.2,2.5-1.1,2.7-2.4
		c0-0.1,0-0.3-0.1-0.4c-1.1-1.4-2.5-2.4-4.2-2.9c-0.8-0.3-1.6-0.4-2.4-0.6C24.3,20.1,24.3,20.1,24.2,20.2z"/>
	<path class="st0" d="M19.5,25.4c0.6-0.3,1.2-0.6,1.8-0.8c0.7-0.2,1.1-0.5,1.5-1.1c0.4-0.6,0.5-1.3,0.3-2c-0.1-0.4-0.3-0.8-0.5-1.2
		c0-0.1-0.2-0.2-0.3-0.2c-2.1,0.3-3.9,1.1-5.4,2.6c0,0-0.1,0.1-0.1,0.1c0,0,0,0,0,0.1C18.3,23.3,19,24.2,19.5,25.4z"/>
	<path class="st0" d="M15,29.2c0.3,0,0.7-0.1,1-0.1c0.3,0,0.6,0.1,0.9,0.2c0.3-0.7,0.6-1.3,0.9-1.9c0.1-0.2,0.3-0.4,0.5-0.6
		c0.1-0.2,0.2-0.3,0.1-0.5c-0.2-0.5-0.4-1-0.8-1.4c-0.4-0.4-0.9-0.6-1.5-0.4c-0.1,0-0.2,0.1-0.2,0.2c-0.7,1.4-1,2.9-0.7,4.5
		C15,29.1,15,29.2,15,29.2z"/>
	<path class="st0" d="M15.4,30.6c0.6,1.6,1.6,2.8,3.2,3.6c-0.1-0.1-0.1-0.2-0.1-0.3C17.8,33,17.3,32.1,17,31c0-0.1-0.1-0.2-0.2-0.2
		C16.4,30.5,15.9,30.4,15.4,30.6z"/>
</g>
</svg>
