<?xml version="1.0" encoding="UTF-8" standalone="no"?>
<!DOCTYPE svg PUBLIC "-//W3C//DTD SVG 1.1//EN" "http://www.w3.org/Graphics/SVG/1.1/DTD/svg11.dtd">
<svg version="1.1" xmlns="http://www.w3.org/2000/svg" xmlns:xlink="http://www.w3.org/1999/xlink" preserveAspectRatio="xMidYMid meet" viewBox="0 0 24 24" width="24" height="24"><defs><path d="M20.91 17.48C19.66 16.44 13.41 11.23 2.15 1.84C2.15 5.64 2.15 7.75 2.15 8.18C2.15 9.09 2.58 9.96 3.36 10.6C4.65 11.67 14.98 20.28 16.27 21.35C17.55 22.42 19.63 22.42 20.91 21.35C20.91 21.35 20.91 21.35 20.91 21.35C22.16 20.27 22.16 18.56 20.91 17.48ZM9.65 10.03L11.36 11.46L9.04 13.39L7.32 11.97L9.65 10.03ZM4.52 9.63C4.06 9.24 3.8 8.72 3.8 8.18C3.8 7.97 3.8 6.97 3.8 5.15L8.49 9.06L6.16 11C5.29 10.27 4.74 9.81 4.52 9.63ZM10.2 14.36L12.53 12.43C16.86 16.04 19.27 18.05 19.75 18.45C20.37 18.99 20.37 19.84 19.75 20.38C19.11 20.92 18.07 20.92 17.43 20.38C17.43 20.38 17.43 20.38 17.43 20.38C17.43 20.38 15.02 18.38 10.2 14.36Z" id="bVoWAUajH"></path></defs><g><g><g><use xlink:href="#bVoWAUajH" opacity="1" fill="#ffffff" fill-opacity="1"></use><g><use xlink:href="#bVoWAUajH" opacity="1" fill-opacity="0" stroke="#000000" stroke-width="1" stroke-opacity="0"></use></g></g></g></g></svg>